<svg xmlns="http://www.w3.org/2000/svg" width="27.217" height="25.41" viewBox="0 0 27.217 25.41">
  <g id="Group_162828" data-name="Group 162828" transform="translate(0 -16.996)">
    <path id="Path_256354" data-name="Path 256354" d="M17.712,22.208A9.336,9.336,0,0,0,0,26.3a9.2,9.2,0,0,0,.89,3.976L.016,34.647a.8.8,0,0,0,.937.938l4.427-.875a9.167,9.167,0,0,0,1.846.646A10.909,10.909,0,0,1,17.712,22.208Z" transform="translate(0 0)" fill="#aeb0b3"/>
    <path id="Path_256355" data-name="Path 256355" d="M179.245,158.277a9.282,9.282,0,0,0,.4-.984h-.029a9.313,9.313,0,0,0-8.376-12.283h0a9.3,9.3,0,1,0-.447,18.594,9.2,9.2,0,0,0,3.964-.89c4.848.958,4.47.89,4.581.89a.8.8,0,0,0,.782-.954Z" transform="translate(-152.919 -121.199)" fill="#aeb0b3"/>
  </g>
</svg>
