<svg xmlns="http://www.w3.org/2000/svg" width="26.121" height="24.457" viewBox="0 0 26.121 24.457">
  <g id="gift" transform="translate(0 -16.308)">
    <g id="Group_162818" data-name="Group 162818" transform="translate(1.633 29.337)">
      <g id="Group_162817" data-name="Group 162817">
        <path id="Path_256349" data-name="Path 256349" d="M32,271.692v9.8a1.634,1.634,0,0,0,1.633,1.633H41.8V271.692Z" transform="translate(-32 -271.692)" fill="#aeb0b3"/>
      </g>
    </g>
    <g id="Group_162820" data-name="Group 162820" transform="translate(0 16.308)">
      <g id="Group_162819" data-name="Group 162819" transform="translate(0 0)">
        <path id="Path_256350" data-name="Path 256350" d="M24.488,22.807H19.323a6.343,6.343,0,0,0,.911-.73,3.412,3.412,0,0,0,0-4.8,3.45,3.45,0,0,0-4.788,0c-.709.71-2.586,3.6-2.326,5.533H13c.258-1.931-1.619-4.823-2.326-5.533a3.453,3.453,0,0,0-4.788,0,3.417,3.417,0,0,0,0,4.8,6.461,6.461,0,0,0,.913.73H1.633A1.635,1.635,0,0,0,0,24.439v2.449a.817.817,0,0,0,.816.816H11.428V24.439h3.265V27.7H25.3a.817.817,0,0,0,.816-.816V24.439A1.634,1.634,0,0,0,24.488,22.807Zm-13.157-.054a.538.538,0,0,1-.3.054,8.028,8.028,0,0,1-3.985-1.881,1.781,1.781,0,0,1,0-2.5,1.74,1.74,0,0,1,2.473,0C10.618,19.532,11.712,22.359,11.332,22.753Zm3.758.054c-.232,0-.3-.052-.3-.054-.38-.393.713-3.221,1.814-4.328a1.759,1.759,0,1,1,2.473,2.5A8.026,8.026,0,0,1,15.09,22.807Z" transform="translate(0 -16.308)" fill="#aeb0b3"/>
      </g>
    </g>
    <g id="Group_162822" data-name="Group 162822" transform="translate(14.693 29.337)">
      <g id="Group_162821" data-name="Group 162821">
        <path id="Path_256351" data-name="Path 256351" d="M288,271.692V283.12h8.163a1.633,1.633,0,0,0,1.633-1.633v-9.8Z" transform="translate(-288 -271.692)" fill="#aeb0b3"/>
      </g>
    </g>
  </g>
</svg>
