<svg id="Group_162816" data-name="Group 162816" xmlns="http://www.w3.org/2000/svg" width="26.973" height="25.34" viewBox="0 0 26.973 25.34">
  <path id="Path_256344" data-name="Path 256344" d="M36.322,138.661a3.161,3.161,0,0,0-6.322,0v11.116h6.322Zm-2.371.79h-1.58v-1.58h1.58Z" transform="translate(-28.42 -129.178)" fill="#aeb0b3"/>
  <path id="Path_256345" data-name="Path 256345" d="M25.393,225.5H22.232v12.7H7.9v-1.58H1.58v1.58H0v1.58H26.973V238.2h-1.58Z" transform="translate(0 -214.437)" fill="#aeb0b3"/>
  <path id="Path_256346" data-name="Path 256346" d="M288.344,61.792l.4-3.511-4.333,1.558-.4,3.511Z" transform="translate(-269.049 -56.027)" fill="#aeb0b3"/>
  <path id="Path_256347" data-name="Path 256347" d="M398.181,17.15l-.4,3.511,6.017-2.19-1.081-2.97Z" transform="translate(-376.821 -15.5)" fill="#aeb0b3"/>
  <path id="Path_256348" data-name="Path 256348" d="M162.342,102.835l.4-3.511-5.418,1.953a4.7,4.7,0,0,1,1.176,2.936Z" transform="translate(-149.04 -94.908)" fill="#aeb0b3"/>
</svg>
