<svg xmlns="http://www.w3.org/2000/svg" width="21.015" height="25.618" viewBox="0 0 21.015 25.618">
  <g id="Group_162827" data-name="Group 162827" transform="translate(-46)">
    <g id="Group_162824" data-name="Group 162824" transform="translate(46)">
      <g id="Group_162823" data-name="Group 162823" transform="translate(0)">
        <path id="Path_256352" data-name="Path 256352" d="M56.758,2.051H47.5V.751a.751.751,0,0,0-1.5,0V24.868a.751.751,0,1,0,1.5,0V13.56h9.256a.751.751,0,0,0,.751-.751V2.8A.751.751,0,0,0,56.758,2.051Z" transform="translate(-46)" fill="#aeb0b3"/>
      </g>
    </g>
    <g id="Group_162826" data-name="Group 162826" transform="translate(53.505 4.553)">
      <g id="Group_162825" data-name="Group 162825" transform="translate(0)">
        <path id="Path_256353" data-name="Path 256353" d="M209.455,101.479l-1.89-4.725,1.89-4.725a.751.751,0,0,0-.7-1.029H201.5v8.256a2.254,2.254,0,0,1-2.252,2.252H196v.25a.75.75,0,0,0,.751.751h12.008a.751.751,0,0,0,.7-1.029Z" transform="translate(-195.999 -91)" fill="#aeb0b3"/>
      </g>
    </g>
  </g>
</svg>
